<?xml version="1.0" encoding="UTF-8"?>
<svg version="1.1" xmlns="http://www.w3.org/2000/svg" width="180" height="145">
<path d="M0 0 C59.4 0 118.8 0 180 0 C180 47.85 180 95.7 180 145 C120.6 145 61.2 145 0 145 C0 97.15 0 49.3 0 0 Z " fill="#E53058" transform="translate(0,0)"/>
<path d="M0 0 C17.82 0 35.64 0 54 0 C54 17.16 54 34.32 54 52 C36.18 52 18.36 52 0 52 C0 34.84 0 17.68 0 0 Z " fill="#E5496B" transform="translate(10,43)"/>
<path d="M0 0 C1.32 0.33 2.64 0.66 4 1 C5.4140625 3.58203125 5.4140625 3.58203125 6.625 6.8125 C8.60742693 11.9976487 8.60742693 11.9976487 11 17 C11.37511719 15.85660156 11.75023437 14.71320312 12.13671875 13.53515625 C12.65256349 12.043896 13.16955018 10.55303041 13.6875 9.0625 C13.93177734 8.30775391 14.17605469 7.55300781 14.42773438 6.77539062 C14.68232422 6.05673828 14.93691406 5.33808594 15.19921875 4.59765625 C15.42440186 3.93258057 15.64958496 3.26750488 15.8815918 2.58227539 C17 1 17 1 22 0 C22 8.25 22 16.5 22 25 C22.66 25 23.32 25 24 25 C24.13140381 24.27530518 24.26280762 23.55061035 24.39819336 22.80395508 C24.96903464 20.14427473 25.72007253 17.69797741 26.62890625 15.13671875 C26.94150391 14.25048828 27.25410156 13.36425781 27.57617188 12.45117188 C27.90166016 11.53916016 28.22714844 10.62714844 28.5625 9.6875 C28.89185547 8.75615234 29.22121094 7.82480469 29.56054688 6.86523438 C30.37067821 4.57573277 31.18391683 2.28738542 32 0 C34.42358398 0.36547852 34.42358398 0.36547852 37 1 C38.22265625 3.15234375 38.22265625 3.15234375 39.0625 5.9375 C39.37832031 6.92492188 39.69414062 7.91234375 40.01953125 8.9296875 C40.50486328 10.44949219 40.50486328 10.44949219 41 12 C42.05751114 14.68193548 43.15837464 17.34224672 44.265625 20.00390625 C45 22 45 22 45 24 C43.68 24 42.36 24 41 24 C41.495 24.763125 41.99 25.52625 42.5 26.3125 C44 29 44 29 44 32 C43.01 32 42.02 32 41 32 C40.505 31.01 40.505 31.01 40 30 C37.69 30 35.38 30 33 30 C33 31.32 33 32.64 33 34 C33.86625 34.2475 34.7325 34.495 35.625 34.75 C39.30513068 36.11301136 42.01386708 37.4404575 45 40 C45.75290881 43.61396227 45.468485 45.2259813 43.5625 48.375 C39.78568131 50.77005576 36.35325426 50.79876225 32 50 C29.4375 48.25 29.4375 48.25 28 46 C28 44.68 28 43.36 28 42 C28.99 42 29.98 42 31 42 C31.66 43.32 32.32 44.64 33 46 C35.31 46 37.62 46 40 46 C40.33 44.35 40.66 42.7 41 41 C39.58603098 40.49242138 38.16868271 39.99425075 36.75 39.5 C35.96109375 39.2215625 35.1721875 38.943125 34.359375 38.65625 C31.76587262 37.82135139 31.76587262 37.82135139 28 38 C23.66666667 38 19.33333333 38 15 38 C15 40.64 15 43.28 15 46 C18.96 46 22.92 46 27 46 C27 46.99 27 47.98 27 49 C22.05 49 17.1 49 12 49 C12 41.08 12 33.16 12 25 C11.01 25 10.02 25 9 25 C8.81824219 24.443125 8.63648438 23.88625 8.44921875 23.3125 C6.75137815 18.15803009 4.93577765 13.06989385 3 8 C2.67 12.95 2.34 17.9 2 23 C1.34 23 0.68 23 0 23 C0 15.41 0 7.82 0 0 Z " fill="#E63B61" transform="translate(130,44)"/>
<path d="M0 0 C2.29296875 -0.0234375 2.29296875 -0.0234375 5 1 C6.5740244 3.62784043 7.40985925 6.45987525 8.3125 9.375 C8.57611328 10.15617187 8.83972656 10.93734375 9.11132812 11.7421875 C10.18296909 14.99329568 11 17.55054096 11 21 C11.66 21 12.32 21 13 21 C12.566875 22.0209375 12.566875 22.0209375 12.125 23.0625 C11.67404725 25.95419916 11.67404725 25.95419916 13.26953125 27.5390625 C14.09517578 28.35503906 14.09517578 28.35503906 14.9375 29.1875 C17.71063516 32.14163233 18.49823419 34.06245756 18.625 38.125 C18.35018738 42.5354074 17.33491541 44.95093448 14 48 C10.01650739 50.65566174 6.68637086 50.85437447 2 50 C-0.5625 47.625 -0.5625 47.625 -2 45 C-2 44.34 -2 43.68 -2 43 C-2.66 43 -3.32 43 -4 43 C-4 41.02 -4 39.04 -4 37 C-4.66 37 -5.32 37 -6 37 C-6 41.29 -6 45.58 -6 50 C-7.32 50 -8.64 50 -10 50 C-10 46.37 -10 42.74 -10 39 C-13.96 39 -17.92 39 -22 39 C-22 42.63 -22 46.26 -22 50 C-22.99 50 -23.98 50 -25 50 C-25 42.08 -25 34.16 -25 26 C-24.01 26 -23.02 26 -22 26 C-22 29.3 -22 32.6 -22 36 C-18.04 36 -14.08 36 -10 36 C-10 32.37 -10 28.74 -10 25 C-9.34 25 -8.68 25 -8 25 C-8 23.35 -8 21.7 -8 20 C-7.34 20 -6.68 20 -6 20 C-5.9175 19.030625 -5.835 18.06125 -5.75 17.0625 C-5.1960125 13.05423748 -3.68761352 9.73575886 -1.9375 6.11328125 C-1.03714987 4.08374199 -0.46922753 2.16528955 0 0 Z " fill="#E6385F" transform="translate(95,44)"/>
<path d="M0 0 C8.25 0 16.5 0 25 0 C25 16.17 25 32.34 25 49 C16.75 49 8.5 49 0 49 C0 46.36 0 43.72 0 41 C1.65 41 3.3 41 5 41 C5.144375 40.278125 5.28875 39.55625 5.4375 38.8125 C5.95833333 36.20833333 6.47916667 33.60416667 7 31 C6.030625 30.4225 5.06125 29.845 4.0625 29.25 C1 27 1 27 0.125 24.75 C0.08375 24.1725 0.0425 23.595 0 23 C3.86724404 23.53711723 5.96561775 24.59342098 9 27 C9.66 27 10.32 27 11 27 C11.26554687 26.33613281 11.53109375 25.67226562 11.8046875 24.98828125 C13.53645833 20.65885417 15.26822917 16.32942708 17 12 C12.38 12 7.76 12 3 12 C2.34 13.98 1.68 15.96 1 18 C0.67 18 0.34 18 0 18 C0 12.06 0 6.12 0 0 Z " fill="#BB2F48" transform="translate(37,44)"/>
<path d="M0 0 C4.62 0 9.24 0 14 0 C14.99 1.98 15.98 3.96 17 6 C18.50559539 4.03617993 19.89131683 2.21736634 21 0 C25.62 0 30.24 0 35 0 C34.16583712 4.17081442 33.21232487 7.03530861 31.4375 10.8125 C30.98246094 11.78832031 30.52742188 12.76414062 30.05859375 13.76953125 C29.70925781 14.50558594 29.35992187 15.24164063 29 16 C24.234375 14.2109375 24.234375 14.2109375 22.125 12.3125 C18.89395429 10.31685412 16.58660324 11.15225742 13 12 C12.01 12.66 11.02 13.32 10 14 C7.48828125 13.9296875 7.48828125 13.9296875 5 13 C3.41796875 10.8203125 3.41796875 10.8203125 2.1875 8.125 C1.76855469 7.24070312 1.34960938 6.35640625 0.91796875 5.4453125 C0 3 0 3 0 0 Z " fill="#EFDFE2" transform="translate(19,56)"/>
<path d="M0 0 C12 0 12 0 16 3 C16.38362382 6.60606389 15.90005775 9.52834866 15 13 C15.33 13.33 15.66 13.66 16 14 C16.07205511 15.68608966 16.08386068 17.37500659 16.0625 19.0625 C16.05347656 19.98160156 16.04445313 20.90070313 16.03515625 21.84765625 C16.02355469 22.55792969 16.01195313 23.26820312 16 24 C15.01 23.67 14.02 23.34 13 23 C12.67 20.03 12.34 17.06 12 14 C9.03 13.67 6.06 13.34 3 13 C3 16.63 3 20.26 3 24 C2.01 24 1.02 24 0 24 C0 16.08 0 8.16 0 0 Z " fill="#F0C3CE" transform="translate(109,44)"/>
<path d="M0 0 C1.32 0 2.64 0 4 0 C4.81289053 2.27069422 5.62532738 4.54154901 6.4375 6.8125 C6.78264648 7.77639648 6.78264648 7.77639648 7.13476562 8.75976562 C8.11417851 11.49928283 9.07995362 14.23986086 10 17 C10.66 17 11.32 17 12 17 C12.0825 16.195625 12.165 15.39125 12.25 14.5625 C13.34832922 9.34543623 15.62538175 4.7492365 18 0 C19.32 0 20.64 0 22 0 C22 7.59 22 15.18 22 23 C21.01 23 20.02 23 19 23 C18.67 18.38 18.34 13.76 18 9 C16.35 13.62 14.7 18.24 13 23 C11.68 23 10.36 23 9 23 C8.35366725 21.22934889 7.7079517 19.45847247 7.0625 17.6875 C6.70285156 16.70136719 6.34320313 15.71523437 5.97265625 14.69921875 C5.29114035 12.8079437 4.6357189 10.90715671 4 9 C3.67 13.62 3.34 18.24 3 23 C2.01 23 1.02 23 0 23 C0 15.41 0 7.82 0 0 Z " fill="#EFBDC8" transform="translate(116,70)"/>
<path d="M0 0 C1.32 0.33 2.64 0.66 4 1 C5.4140625 3.58203125 5.4140625 3.58203125 6.625 6.8125 C8.60742693 11.9976487 8.60742693 11.9976487 11 17 C11.37511719 15.85660156 11.75023437 14.71320312 12.13671875 13.53515625 C12.65256349 12.043896 13.16955018 10.55303041 13.6875 9.0625 C13.93177734 8.30775391 14.17605469 7.55300781 14.42773438 6.77539062 C14.68232422 6.05673828 14.93691406 5.33808594 15.19921875 4.59765625 C15.42440186 3.93258057 15.64958496 3.26750488 15.8815918 2.58227539 C17 1 17 1 22 0 C22 7.92 22 15.84 22 24 C21.01 24 20.02 24 19 24 C18.67 19.38 18.34 14.76 18 10 C16.02 14.29 14.04 18.58 12 23 C11.01 23 10.02 23 9 23 C8.18325204 21.25197854 7.37176549 19.50149811 6.5625 17.75 C6.11003906 16.77546875 5.65757812 15.8009375 5.19140625 14.796875 C4 12 4 12 3 8 C2.67 12.95 2.34 17.9 2 23 C1.34 23 0.68 23 0 23 C0 15.41 0 7.82 0 0 Z " fill="#F1D2D8" transform="translate(130,44)"/>
<path d="M0 0 C2.07560953 1.53873132 2.8676658 2.5839793 3.65234375 5.05078125 C4.17793986 9.21955038 4.16843145 11.58258294 2.5625 15.5625 C-0.21937456 18.20867337 -0.6417205 18.35577293 -4.25 18.375 C-5.4875 18.25125 -6.725 18.1275 -8 18 C-10.66358609 14.12569297 -12.41556579 11.53065795 -11.9375 6.75 C-11 3 -11 3 -9.9375 1 C-6.81153981 -0.61339881 -3.42763092 -0.70487571 0 0 Z " fill="#E6375E" transform="translate(106,73)"/>
<path d="M0 0 C3.53433271 0.98366541 5.29748396 2.51035045 7.4140625 5.46875 C9.25455335 9.52358141 9.28633661 13.34715464 8.4140625 17.671875 C6.36298662 21.06675922 4.70921629 22.47510581 1.4140625 24.671875 C-1.64959183 25.20787346 -4.5242782 25.23004754 -7.5859375 24.671875 C-10.1484375 22.296875 -10.1484375 22.296875 -11.5859375 19.671875 C-11.5859375 19.011875 -11.5859375 18.351875 -11.5859375 17.671875 C-12.2459375 17.671875 -12.9059375 17.671875 -13.5859375 17.671875 C-14.15675445 12.41824495 -14.43943304 7.96338435 -11.2109375 3.546875 C-7.83522393 0.18716007 -4.66793286 -0.36666542 0 0 Z M-8.5234375 4.671875 C-10.24186057 7.90655372 -10.8365162 11.05826645 -10.5859375 14.671875 C-9.52112283 17.31898437 -8.21851761 19.29721302 -6.5859375 21.671875 C-3.66001199 21.96446755 -1.43565753 22.17668255 1.4140625 21.671875 C4.17294803 19.04756925 5.33478338 17.22574584 5.53125 13.375 C5.205644 8.84968142 5.205644 8.84968142 3.10546875 4.92578125 C-0.24370279 2.44290812 -4.9137078 2.8087887 -8.5234375 4.671875 Z " fill="#F0C6CF" transform="translate(104.5859375,69.328125)"/>
<path d="M0 0 C2.37109375 0.19140625 2.37109375 0.19140625 5 1 C6.22265625 3.15234375 6.22265625 3.15234375 7.0625 5.9375 C7.53623047 7.41863281 7.53623047 7.41863281 8.01953125 8.9296875 C8.50486328 10.44949219 8.50486328 10.44949219 9 12 C10.05751114 14.68193548 11.15837464 17.34224672 12.265625 20.00390625 C13 22 13 22 13 24 C11.68 23.67 10.36 23.34 9 23 C8.34 20.69 7.68 18.38 7 16 C3.7 16 0.4 16 -3 16 C-3.33 17.98 -3.66 19.96 -4 22 C-4.99 22.33 -5.98 22.66 -7 23 C-6.33654156 17.74272175 -4.74419696 13.07140932 -2.9375 8.125 C-2.65583984 7.34125 -2.37417969 6.5575 -2.08398438 5.75 C-1.39386218 3.83169424 -0.69755684 1.91561481 0 0 Z " fill="#F1D7DD" transform="translate(162,44)"/>
<path d="M0 0 C2.3737793 0.22485352 2.3737793 0.22485352 5 1 C6.21020508 2.91772461 6.21020508 2.91772461 7.01953125 5.40234375 C7.4690918 6.73749023 7.4690918 6.73749023 7.92773438 8.09960938 C8.21970703 9.03611328 8.51167969 9.97261719 8.8125 10.9375 C9.12380859 11.87013672 9.43511719 12.80277344 9.75585938 13.76367188 C12 20.58487294 12 20.58487294 12 23 C11.01 22.67 10.02 22.34 9 22 C7.8125 19.4375 7.8125 19.4375 7 17 C4.03 16.67 1.06 16.34 -2 16 C-2.268125 17.134375 -2.53625 18.26875 -2.8125 19.4375 C-3.204375 20.613125 -3.59625 21.78875 -4 23 C-4.99 23.33 -5.98 23.66 -7 24 C-6.46870624 18.02798909 -5.15389059 13.05383257 -2.9375 7.5 C-2.65583984 6.77296875 -2.37417969 6.0459375 -2.08398438 5.296875 C-1.39741552 3.52808745 -0.69986318 1.76356959 0 0 Z " fill="#EFBDC7" transform="translate(95,44)"/>
<path d="M0 0 C2.84460143 1.42230071 5.40337141 3.17055713 8 5 C7.36738317 8.69026484 6.42909641 11.42725897 5 15 C1.37 15 -2.26 15 -6 15 C-8.97691373 8.80801944 -8.97691373 8.80801944 -9.0625 5.8125 C-7.12913026 2.51439867 -3.91182875 0 0 0 Z " fill="#F2E5E8" transform="translate(37,70)"/>
<path d="M0 0 C0.99 0 1.98 0 3 0 C3 3.3 3 6.6 3 10 C6.96 10 10.92 10 15 10 C15 6.7 15 3.4 15 0 C15.99 0 16.98 0 18 0 C18 7.92 18 15.84 18 24 C17.01 24 16.02 24 15 24 C15 20.37 15 16.74 15 13 C11.04 13 7.08 13 3 13 C3 16.63 3 20.26 3 24 C2.01 24 1.02 24 0 24 C0 16.08 0 8.16 0 0 Z " fill="#F0C8D1" transform="translate(70,70)"/>
<path d="M0 0 C2.5 1.3125 2.5 1.3125 4 3 C4 3.99 4 4.98 4 6 C3.01 6 2.02 6 1 6 C0.67 5.34 0.34 4.68 0 4 C-2.31 4 -4.62 4 -7 4 C-7 5.32 -7 6.64 -7 8 C-6.13375 8.2475 -5.2675 8.495 -4.375 8.75 C-0.69486932 10.11301136 2.01386708 11.4404575 5 14 C5.75290881 17.61396227 5.468485 19.2259813 3.5625 22.375 C-0.21431869 24.77005576 -3.64674574 24.79876225 -8 24 C-10.5625 22.25 -10.5625 22.25 -12 20 C-12 18.68 -12 17.36 -12 16 C-11.01 16 -10.02 16 -9 16 C-8.34 17.32 -7.68 18.64 -7 20 C-4.69 20 -2.38 20 0 20 C0.33 18.35 0.66 16.7 1 15 C0.38511719 14.81824219 -0.22976562 14.63648437 -0.86328125 14.44921875 C-1.67152344 14.19785156 -2.47976562 13.94648437 -3.3125 13.6875 C-4.11300781 13.44386719 -4.91351563 13.20023438 -5.73828125 12.94921875 C-8.14941441 11.9372924 -9.40107243 11.05576402 -11 9 C-11.38601984 5.91184125 -11.47901666 3.89815624 -10 1.125 C-6.79670637 -0.67685267 -3.53627477 -0.53364307 0 0 Z " fill="#EFBAC6" transform="translate(170,70)"/>
<path d="M0 0 C4.95 0 9.9 0 15 0 C15 0.99 15 1.98 15 3 C11.04 3 7.08 3 3 3 C3 5.31 3 7.62 3 10 C6.63 10 10.26 10 14 10 C14 10.66 14 11.32 14 12 C10.37 12 6.74 12 3 12 C3 14.64 3 17.28 3 20 C6.96 20 10.92 20 15 20 C15 20.99 15 21.98 15 23 C10.05 23 5.1 23 0 23 C0 15.41 0 7.82 0 0 Z " fill="#F1CBD3" transform="translate(142,70)"/>
<path d="M0 0 C3.96 0 7.92 0 12 0 C13.32 2.64 14.64 5.28 16 8 C9.94440631 12.86822237 9.94440631 12.86822237 6.3125 13.375 C2.49049149 11.1024544 1.29724405 7.13088888 0 3 C0 2.01 0 1.02 0 0 Z " fill="#F4F1F2" transform="translate(20,57)"/>
<path d="M0 0 C1.828125 0.10546875 1.828125 0.10546875 4 1 C5.484375 3.80078125 5.484375 3.80078125 6.75 7.3125 C7.17796875 8.46363281 7.6059375 9.61476563 8.046875 10.80078125 C9 14 9 14 9 18 C11.57174375 16.71412812 11.5972893 15.85578141 12.5078125 13.18359375 C12.77207031 12.41982422 13.03632812 11.65605469 13.30859375 10.86914062 C13.57800781 10.06669922 13.84742187 9.26425781 14.125 8.4375 C14.40214844 7.63119141 14.67929688 6.82488281 14.96484375 5.99414062 C15.6497948 3.99833499 16.32574416 1.99944421 17 0 C17.99 0 18.98 0 20 0 C19.34 3.3 18.68 6.6 18 10 C17.34 10 16.68 10 16 10 C15.8453125 11.546875 15.8453125 11.546875 15.6875 13.125 C15.00872203 16.95083945 13.88841205 19.63370025 12 23 C10.68 23 9.36 23 8 23 C7.04100649 20.29189883 6.08278553 17.58352839 5.125 14.875 C4.85558594 14.11445312 4.58617188 13.35390625 4.30859375 12.5703125 C2.83208351 8.39286889 1.38505036 4.20893943 0 0 Z " fill="#F0C9D1" transform="translate(70,44)"/>
<path d="M0 0 C1.32 0 2.64 0 4 0 C4 7.92 4 15.84 4 24 C3.01 24 2.02 24 1 24 C0.96261719 23.01257813 0.92523438 22.02515625 0.88671875 21.0078125 C0.82097656 19.72648437 0.75523437 18.44515625 0.6875 17.125 C0.62949219 15.84882812 0.57148438 14.57265625 0.51171875 13.2578125 C0.34285156 12.18273437 0.17398438 11.10765625 0 10 C-0.99 9.34 -1.98 8.68 -3 8 C-1.125 1.125 -1.125 1.125 0 0 Z " fill="#EEB3BD" transform="translate(148,44)"/>
<path d="M0 0 C3.96 0 7.92 0 12 0 C12 0.66 12 1.32 12 2 C7.545 2.495 7.545 2.495 3 3 C2.67 5.64 2.34 8.28 2 11 C5.3 11 8.6 11 12 11 C12 11.33 12 11.66 12 12 C9.03 12 6.06 12 3 12 C3 15.96 3 19.92 3 24 C2.01 24 1.02 24 0 24 C0 16.08 0 8.16 0 0 Z " fill="#F1CED7" transform="translate(109,44)"/>
<path d="M0 0 C0.33 0 0.66 0 1 0 C1 1.65 1 3.3 1 5 C3.31 5 5.62 5 8 5 C8.33 4.01 8.66 3.02 9 2 C12.33773709 5.64116773 12.97864902 9.28607242 14 14 C13.01 13.67 12.02 13.34 11 13 C9.8125 10.4375 9.8125 10.4375 9 8 C6.03 7.67 3.06 7.34 0 7 C-0.4021875 8.7015625 -0.4021875 8.7015625 -0.8125 10.4375 C-1.204375 11.613125 -1.59625 12.78875 -2 14 C-2.99 14.33 -3.98 14.66 -5 15 C-4.56826496 8.84777564 -3.34594658 5.18082051 0 0 Z " fill="#F3E9EC" transform="translate(93,53)"/>
<path d="M0 0 C0 0.33 0 0.66 0 1 C-1.3921875 1.3403125 -1.3921875 1.3403125 -2.8125 1.6875 C-6.05609167 2.75793766 -6.05609167 2.75793766 -7.9375 5.125 C-9.66994595 9.81279492 -8.58464087 13.7199006 -7.375 18.4375 C-5.09785508 21.02516468 -2.28622049 20.75657626 1 21 C1 21.33 1 21.66 1 22 C-3.16216275 22.32644414 -5.36313462 22.40650982 -8.9375 20.125 C-11 18 -11 18 -11 16 C-11.66 16 -12.32 16 -13 16 C-13.62518714 7.05635068 -13.62518714 7.05635068 -11.1875 2.9375 C-7.60493766 -0.23562665 -4.60656283 -0.10236806 0 0 Z " fill="#F0C2CC" transform="translate(104,71)"/>
<path d="M0 0 C1.32 0.33 2.64 0.66 4 1 C3.01 1 2.02 1 1 1 C1 1.99 1 2.98 1 4 C1.66 4 2.32 4 3 4 C6 10.625 6 10.625 6 14 C2.7 14 -0.6 14 -4 14 C-3.52188823 12.22888156 -3.0424722 10.45811517 -2.5625 8.6875 C-2.29566406 7.70136719 -2.02882812 6.71523438 -1.75390625 5.69921875 C-1.21920575 3.78482474 -0.62855462 1.88566385 0 0 Z " fill="#F0C2CC" transform="translate(162,44)"/>
<path d="M0 0 C2.5 1.3125 2.5 1.3125 4 3 C4 3.99 4 4.98 4 6 C3.01 6 2.02 6 1 6 C0.67 5.34 0.34 4.68 0 4 C-2.31 4 -4.62 4 -7 4 C-6.42547254 7.93075644 -6.42547254 7.93075644 -4 11 C-6.375 11.125 -6.375 11.125 -9 11 C-11 9 -11 9 -11.3125 6.0625 C-11 3 -11 3 -10 1.125 C-6.79670637 -0.67685267 -3.53627477 -0.53364307 0 0 Z " fill="#F0CBD3" transform="translate(170,70)"/>
<path d="M0 0 C1.47906892 -0.02689216 2.95827483 -0.04634621 4.4375 -0.0625 C5.26121094 -0.07410156 6.08492188 -0.08570313 6.93359375 -0.09765625 C9 0 9 0 10 1 C10.125 3.5 10.125 3.5 10 6 C9 7 9 7 6.93359375 7.09765625 C6.10988281 7.08605469 5.28617187 7.07445312 4.4375 7.0625 C3.61121094 7.05347656 2.78492187 7.04445313 1.93359375 7.03515625 C1.29550781 7.02355469 0.65742187 7.01195312 0 7 C0 4.69 0 2.38 0 0 Z " fill="#E6345B" transform="translate(112,47)"/>
<path d="M0 0 C1.32 0.33 2.64 0.66 4 1 C4 2.65 4 4.3 4 6 C3.34 6 2.68 6 2 6 C2 11.61 2 17.22 2 23 C1.34 23 0.68 23 0 23 C0 15.41 0 7.82 0 0 Z " fill="#F2E4E8" transform="translate(130,44)"/>
<path d="M0 0 C3.98516897 0.05717603 6.11863698 0.49529821 8.9375 3.375 C12.16599554 7.79150935 11.88331695 12.24636995 11.3125 17.5 C10.9825 17.5 10.6525 17.5 10.3125 17.5 C9.9825 14.86 9.6525 12.22 9.3125 9.5 C8.6525 9.5 7.9925 9.5 7.3125 9.5 C6.920625 8.695625 6.52875 7.89125 6.125 7.0625 C4.48251932 4.11548571 4.48251932 4.11548571 0.8125 3.8125 C-0.92 3.6578125 -0.92 3.6578125 -2.6875 3.5 C-3.6775 2.84 -4.6675 2.18 -5.6875 1.5 C-4.05272064 -0.13477936 -2.25277873 0.13469529 0 0 Z " fill="#EFB5C1" transform="translate(101.6875,69.5)"/>
<path d="M0 0 C-0.99 0.495 -0.99 0.495 -2 1 C-1.67 1.99 -1.34 2.98 -1 4 C-1.54269531 4.25394531 -2.08539063 4.50789063 -2.64453125 4.76953125 C-3.35996094 5.11371094 -4.07539062 5.45789063 -4.8125 5.8125 C-5.52019531 6.14894531 -6.22789063 6.48539062 -6.95703125 6.83203125 C-9.01129035 8.00645471 -10.41616278 9.25628016 -12 11 C-11.67 9.35 -11.34 7.7 -11 6 C-12.32 5.67 -13.64 5.34 -15 5 C-14.67 4.34 -14.34 3.68 -14 3 C-12.00239695 2.65259077 -10.00212229 2.32033957 -8 2 C-4.77208445 -0.1519437 -3.71599191 -0.20086443 0 0 Z " fill="#E24365" transform="translate(39,66)"/>
<path d="M0 0 C0.33 0 0.66 0 1 0 C1 2.64 1 5.28 1 8 C4.96 8 8.92 8 13 8 C13 8.99 13 9.98 13 11 C8.05 11 3.1 11 -2 11 C-1.34 10.67 -0.68 10.34 0 10 C0 6.7 0 3.4 0 0 Z " fill="#EFBBC6" transform="translate(144,82)"/>
<path d="M0 0 C0.33 0.99 0.66 1.98 1 3 C4.3 3 7.6 3 11 3 C11 3.33 11 3.66 11 4 C8.03 4 5.06 4 2 4 C1.5978125 5.7015625 1.5978125 5.7015625 1.1875 7.4375 C0.795625 8.613125 0.40375 9.78875 0 11 C-0.99 11.33 -1.98 11.66 -3 12 C-2.14285714 3.42857143 -2.14285714 3.42857143 0 0 Z " fill="#EFB8C4" transform="translate(91,56)"/>
<path d="M0 0 C1.2065625 0.0309375 1.2065625 0.0309375 2.4375 0.0625 C3.0625 2.4375 3.0625 2.4375 3.4375 5.0625 C2.7775 5.7225 2.1175 6.3825 1.4375 7.0625 C-0.6875 6.6875 -0.6875 6.6875 -2.5625 6.0625 C-2.94468767 4.40635343 -3.27645102 2.73792976 -3.5625 1.0625 C-2.5625 0.0625 -2.5625 0.0625 0 0 Z " fill="#E8637F" transform="translate(81.5625,105.9375)"/>
<path d="M0 0 C0 0.33 0 0.66 0 1 C-1.3921875 1.3403125 -1.3921875 1.3403125 -2.8125 1.6875 C-7.46645403 3.60383401 -8.30293467 6.34905581 -10.1875 10.8125 C-10.455625 11.534375 -10.72375 12.25625 -11 13 C-11.33 13 -11.66 13 -12 13 C-12.08131463 11.56344146 -12.13933559 10.1255517 -12.1875 8.6875 C-12.22230469 7.88699219 -12.25710937 7.08648437 -12.29296875 6.26171875 C-12 4 -12 4 -10.67578125 2.26953125 C-7.28536136 -0.29896867 -4.0841311 -0.09075847 0 0 Z " fill="#F0CCD4" transform="translate(104,71)"/>
<path d="M0 0 C1.66611905 -0.042721 3.33382885 -0.04063832 5 0 C6 1 6 1 6.0625 3.5625 C6.041875 4.366875 6.02125 5.17125 6 6 C4.02 6 2.04 6 0 6 C-1.125 2.25 -1.125 2.25 0 0 Z " fill="#E96582" transform="translate(170,106)"/>
<path d="M0 0 C2.85889879 0.03592871 4.09785151 0.20293454 6.6875 1.5625 C8.1875 3.25 8.1875 3.25 8.1875 6.25 C7.1975 6.25 6.2075 6.25 5.1875 6.25 C4.8575 5.59 4.5275 4.93 4.1875 4.25 C2.18989695 3.90259077 0.18962229 3.57033957 -1.8125 3.25 C-2.8025 2.59 -3.7925 1.93 -4.8125 1.25 C-3.8125 0.25 -3.8125 0.25 0 0 Z " fill="#EFBFC9" transform="translate(165.8125,69.75)"/>
<path d="M0 0 C3.63 0.33 7.26 0.66 11 1 C11 1.33 11 1.66 11 2 C7.7 2 4.4 2 1 2 C0.67 3.98 0.34 5.96 0 8 C-0.99 8.33 -1.98 8.66 -3 9 C-2.5020163 5.26512223 -2.12508244 3.18762365 0 0 Z " fill="#F0C4CD" transform="translate(158,58)"/>
<path d="M0 0 C0.99 0 1.98 0 3 0 C3 6.93 3 13.86 3 21 C2.67 21 2.34 21 2 21 C2 15.72 2 10.44 2 5 C1.34 5 0.68 5 0 5 C0 3.35 0 1.7 0 0 Z " fill="#F4EBED" transform="translate(134,71)"/>
<path d="M0 0 C0.66 0 1.32 0 2 0 C2 7.59 2 15.18 2 23 C1.67 23 1.34 23 1 23 C1 17.06 1 11.12 1 5 C0.34 5 -0.32 5 -1 5 C-0.67 3.35 -0.34 1.7 0 0 Z " fill="#F3ECEE" transform="translate(149,44)"/>
<path d="M0 0 C1.65 0 3.3 0 5 0 C5 1.98 5 3.96 5 6 C3.35 6 1.7 6 0 6 C0 4.02 0 2.04 0 0 Z " fill="#E96A85" transform="translate(40,106)"/>
<path d="M0 0 C0.99 0 1.98 0 3 0 C3.45375 0.804375 3.9075 1.60875 4.375 2.4375 C5.76652185 5.24882907 5.76652185 5.24882907 8.6875 5.8125 C9.8321875 5.9053125 9.8321875 5.9053125 11 6 C11 6.33 11 6.66 11 7 C3.58358663 7.36474164 3.58358663 7.36474164 1 5.75 C0 4 0 4 0 0 Z " fill="#F0C5CF" transform="translate(158,86)"/>
<path d="M0 0 C2.18975773 3.28463659 2.99806563 6.20696275 4 10 C2.68 9.67 1.36 9.34 0 9 C-0.66 6.69 -1.32 4.38 -2 2 C-1.34 2 -0.68 2 0 2 C0 1.34 0 0.68 0 0 Z " fill="#EFB9C5" transform="translate(171,58)"/>
<path d="M0 0 C0.66 0.33 1.32 0.66 2 1 C2.40729228 3.32156597 2.74438677 5.6568787 3 8 C1.35 8 -0.3 8 -2 8 C-1.125 1.125 -1.125 1.125 0 0 Z " fill="#E74367" transform="translate(97,49)"/>
<path d="M0 0 C0.99 0.33 1.98 0.66 3 1 C3 1.99 3 2.98 3 4 C2.34 4 1.68 4 1 4 C1 9.61 1 15.22 1 21 C0.67 21 0.34 21 0 21 C0 14.07 0 7.14 0 0 Z " fill="#F4F1F2" transform="translate(117,71)"/>
<path d="M0 0 C3.15331799 3.00998536 5.10783325 5.6878607 6 10 C4.68 10 3.36 10 2 10 C0.39644899 6.49223216 -0.22036864 3.85645121 0 0 Z " fill="#F1D9DE" transform="translate(76,57)"/>
<path d="M0 0 C0.928125 0.2784375 0.928125 0.2784375 1.875 0.5625 C4.04160178 1.23686176 4.04160178 1.23686176 6 0 C6 1.98 6 3.96 6 6 C5.34 6 4.68 6 4 6 C3.67 5.34 3.34 4.68 3 4 C2.67 4.66 2.34 5.32 2 6 C1.34 6 0.68 6 0 6 C0 4.02 0 2.04 0 0 Z " fill="#EA7C92" transform="translate(160,106)"/>
<path d="M0 0 C0.66 0 1.32 0 2 0 C2.33 2.31 2.66 4.62 3 7 C1.35 7 -0.3 7 -2 7 C-1.125 1.125 -1.125 1.125 0 0 Z " fill="#E74065" transform="translate(164,50)"/>
<path d="M0 0 C2 0 4 0 6 0 C6 1.98 6 3.96 6 6 C4.68 5.34 3.36 4.68 2 4 C1.34 4.66 0.68 5.32 0 6 C0 4.02 0 2.04 0 0 Z " fill="#EA7D94" transform="translate(113,106)"/>
<path d="M0 0 C1.99097846 2.98646769 2.94124926 5.59687262 4 9 C3.34 9 2.68 9 2 9 C1.67 9.99 1.34 10.98 1 12 C0.63597631 10.56496445 0.28413409 9.12683494 -0.0625 7.6875 C-0.25972656 6.88699219 -0.45695313 6.08648437 -0.66015625 5.26171875 C-1 3 -1 3 0 0 Z " fill="#EFBBC6" transform="translate(134,47)"/>
<path d="M0 0 C1.32 0.33 2.64 0.66 4 1 C4.33 2.98 4.66 4.96 5 7 C3.35 6.67 1.7 6.34 0 6 C0 4.02 0 2.04 0 0 Z " fill="#EA718E" transform="translate(122,106)"/>
<path d="M0 0 C0.66 0 1.32 0 2 0 C2.33 1.98 2.66 3.96 3 6 C-0.96 5.67 -4.92 5.34 -9 5 C-8.67 4.34 -8.34 3.68 -8 3 C-5.36 3.33 -2.72 3.66 0 4 C0 2.68 0 1.36 0 0 Z " fill="#F2E3E7" transform="translate(168,54)"/>
<path d="M0 0 C1.32 0.33 2.64 0.66 4 1 C3.01 1 2.02 1 1 1 C1 1.99 1 2.98 1 4 C1.66 4 2.32 4 3 4 C2.34 5.98 1.68 7.96 1 10 C0.01 9.67 -0.98 9.34 -2 9 C-1.51421457 5.87709365 -1.0013988 3.00419641 0 0 Z " fill="#EEA9B8" transform="translate(162,44)"/>
<path d="M0 0 C0.99 0 1.98 0 3 0 C2.34 3.3 1.68 6.6 1 10 C0.01 9.01 -0.98 8.02 -2 7 C-1.34 4.69 -0.68 2.38 0 0 Z " fill="#EFB7C3" transform="translate(87,44)"/>
<path d="M0 0 C3.63 0 7.26 0 11 0 C11 0.66 11 1.32 11 2 C7.37 2.33 3.74 2.66 0 3 C0 2.01 0 1.02 0 0 Z " fill="#F3E0E5" transform="translate(110,44)"/>
<path d="M0 0 C2 0 4 0 6 0 C5.34 1.98 4.68 3.96 4 6 C3.01 6 2.02 6 1 6 C0.67 4.02 0.34 2.04 0 0 Z " fill="#E97088" transform="translate(147,106)"/>
<path d="M0 0 C2.95183101 2.95183101 3.08663988 5.95511947 4 10 C3.01 9.67 2.02 9.34 1 9 C-0.25 5.5625 -0.25 5.5625 -1 2 C-0.67 1.34 -0.34 0.68 0 0 Z " fill="#F1D3DA" transform="translate(103,57)"/>
<path d="M0 0 C0.33 0 0.66 0 1 0 C1 5.28 1 10.56 1 16 C0.67 16 0.34 16 0 16 C0 12.7 0 9.4 0 6 C-0.66 6 -1.32 6 -2 6 C-1.34 4.02 -0.68 2.04 0 0 Z " fill="#E75273" transform="translate(134,77)"/>
<path d="M0 0 C2.31 0 4.62 0 7 0 C5.25 5.75 5.25 5.75 3 8 C3.33 6.35 3.66 4.7 4 3 C2.68 2.67 1.36 2.34 0 2 C0 1.34 0 0.68 0 0 Z " fill="#E96783" transform="translate(24,69)"/>
<path d="M0 0 C1.32 0.66 2.64 1.32 4 2 C3.67 3.32 3.34 4.64 3 6 C1.68 6 0.36 6 -1 6 C-0.67 4.02 -0.34 2.04 0 0 Z " fill="#EA7B92" transform="translate(12,106)"/>
<path d="M0 0 C0.99 0.33 1.98 0.66 3 1 C3.33 2.65 3.66 4.3 4 6 C2.35 6 0.7 6 -1 6 C-0.67 4.02 -0.34 2.04 0 0 Z " fill="#EA7A91" transform="translate(50,106)"/>
<path d="M0 0 C2.95183101 2.95183101 3.08663988 5.95511947 4 10 C2.68 9.67 1.36 9.34 0 9 C-0.84454356 5.62182575 -1.10844919 3.32534757 0 0 Z " fill="#EEB3C1" transform="translate(75,50)"/>
<path d="M0 0 C0.66 0 1.32 0 2 0 C2 1.65 2 3.3 2 5 C2.99 5 3.98 5 5 5 C5 5.66 5 6.32 5 7 C3.35 6.67 1.7 6.34 0 6 C0 4.02 0 2.04 0 0 Z " fill="#E97088" transform="translate(135,106)"/>
<path d="M0 0 C1.0326802 2.78823655 1.04509293 3.8677274 0.0625 6.75 C-0.288125 7.4925 -0.63875 8.235 -1 9 C-1.33 9 -1.66 9 -2 9 C-2.125 5.625 -2.125 5.625 -2 2 C-1.34 1.34 -0.68 0.68 0 0 Z " fill="#F2E0E4" transform="translate(94,75)"/>
<path d="M0 0 C0.33 1.32 0.66 2.64 1 4 C-1.95664519 5.4783226 -4.74229737 5.06032783 -8 5 C-8 4.67 -8 4.34 -8 4 C-6.35 4 -4.7 4 -3 4 C-2.67 3.01 -2.34 2.02 -2 1 C-1.34 1.33 -0.68 1.66 0 2 C0 1.34 0 0.68 0 0 Z " fill="#E85E7D" transform="translate(107,65)"/>
<path d="M0 0 C2.89932357 2.39509338 3.50168276 4.31245243 4 8 C2.68 7.34 1.36 6.68 0 6 C0 4.02 0 2.04 0 0 Z " fill="#F1D0D7" transform="translate(99,48)"/>
<path d="M0 0 C0.33 0.66 0.66 1.32 1 2 C0.67 2.99 0.34 3.98 0 5 C0.66 5.33 1.32 5.66 2 6 C1.34 6 0.68 6 0 6 C-0.33 7.32 -0.66 8.64 -1 10 C-2.1875 8.375 -2.1875 8.375 -3 6 C-1.625 2.75 -1.625 2.75 0 0 Z " fill="#EEAEBB" transform="translate(148,44)"/>
<path d="M0 0 C1.32 0.33 2.64 0.66 4 1 C3.34 2.65 2.68 4.3 2 6 C1.34 6 0.68 6 0 6 C0 4.02 0 2.04 0 0 Z " fill="#EA778F" transform="translate(100,106)"/>
<path d="M0 0 C2 1.75 2 1.75 4 4 C4 5.32 4 6.64 4 8 C3.34 8 2.68 8 2 8 C0.74335022 5.09399739 0 3.20395416 0 0 Z " fill="#F2DFE4" transform="translate(120,76)"/>
<path d="M0 0 C0.61875 0.78375 1.2375 1.5675 1.875 2.375 C3.89858661 4.96837647 3.89858661 4.96837647 6 7 C4.33388095 7.042721 2.66617115 7.04063832 1 7 C0 6 0 6 -0.0625 2.9375 C-0.041875 1.968125 -0.02125 0.99875 0 0 Z " fill="#F2DDE1" transform="translate(160,74)"/>
</svg>
